<?xml version="1.0" encoding="UTF-8" standalone="no"?>
<!-- Created with Inkscape (http://www.inkscape.org/) -->

<svg
   version="1.1"
   id="svg1"
   width="333.33334"
   height="333.33334"
   viewBox="0 0 333.33334 333.33334"
   sodipodi:docname="vaadin.svg"
   inkscape:version="1.3 (0e150ed, 2023-07-21)"
   xmlns:inkscape="http://www.inkscape.org/namespaces/inkscape"
   xmlns:sodipodi="http://sodipodi.sourceforge.net/DTD/sodipodi-0.dtd"
   xmlns="http://www.w3.org/2000/svg"
   xmlns:svg="http://www.w3.org/2000/svg">
  <defs
     id="defs1">
    <clipPath
       clipPathUnits="userSpaceOnUse"
       id="clipPath2">
      <path
         d="M 0,250 H 250 V 0 H 0 Z"
         transform="translate(-135.1875,-150.5186)"
         id="path2" />
    </clipPath>
    <clipPath
       clipPathUnits="userSpaceOnUse"
       id="clipPath4">
      <path
         d="M 0,250 H 250 V 0 H 0 Z"
         transform="translate(-124.7754,-34.498998)"
         id="path4" />
    </clipPath>
  </defs>
  <sodipodi:namedview
     id="namedview1"
     pagecolor="#ffffff"
     bordercolor="#666666"
     borderopacity="1.0"
     inkscape:showpageshadow="2"
     inkscape:pageopacity="0.0"
     inkscape:pagecheckerboard="0"
     inkscape:deskcolor="#d1d1d1"
     inkscape:zoom="0.70799997"
     inkscape:cx="166.66667"
     inkscape:cy="165.96046"
     inkscape:window-width="864"
     inkscape:window-height="480"
     inkscape:window-x="0"
     inkscape:window-y="25"
     inkscape:window-maximized="0"
     inkscape:current-layer="layer-MC0">
    <inkscape:page
       x="0"
       y="0"
       inkscape:label="1"
       id="page1"
       width="333.33334"
       height="333.33334"
       margin="45.998402 40.666668 47.082668 41.5172"
       bleed="0" />
  </sodipodi:namedview>
  <g
     id="layer-MC0"
     inkscape:groupmode="layer"
     inkscape:label="Layer 1">
    <path
       id="path1"
       d="m 0,0 c 0.058,0.49 0.098,0.941 0.098,1.476 0,5.221 1.254,10.6 13.995,10.6 h 42.611 c 19.217,0 27.609,9.087 27.609,27.259 v 15.457 c 0,5.179 -4.112,9.377 -9.291,9.377 -5.178,0 -9.334,-4.198 -9.334,-9.377 l -0.024,-5.369 c 0,-5.849 -3.738,-9.964 -12.511,-9.964 H 11.377 c -19.008,0 -20.47,-14.106 -21.096,-21.575 h -0.418 c -0.627,7.469 -2.089,21.575 -21.097,21.575 H -73.01 c -8.773,0 -12.784,4.263 -12.784,10.111 v 5.222 c 0,5.179 -3.927,9.377 -9.105,9.377 -5.179,0 -9.151,-4.198 -9.151,-9.377 V 39.335 c 0,-18.172 8.273,-27.259 27.489,-27.259 h 42.612 c 12.741,0 13.995,-5.379 13.995,-10.6 0,-0.536 0.04,-1.014 0.098,-1.503 0.302,-5.228 4.625,-9.365 9.928,-9.365 5.304,0 9.627,4.163 9.928,9.392"
       style="fill:#00b4f0;fill-opacity:1;fill-rule:nonzero;stroke:none;stroke-width:0.760494"
       transform="matrix(1.7532462,0,0,-1.7532462,184.39391,121.7555)"
       clip-path="url(#clipPath2)" />
    <path
       id="path3"
       d="m 0,0 c 4.498,0 8.363,2.677 10.114,6.52 0.087,0.153 0.175,0.296 0.26,0.459 l 38.805,71.757 c 1.083,1.895 1.65,4.025 1.65,6.175 0,6.862 -5.583,12.445 -12.446,12.445 -5.514,0 -9.26,-2.695 -11.792,-8.484 L 0.006,39.319 -26.55,88.812 c -2.56,5.849 -6.307,8.545 -11.821,8.545 -6.861,0 -12.445,-5.583 -12.445,-12.446 0,-2.151 0.567,-4.281 1.64,-6.159 l 38.81,-71.765 c 0.057,-0.109 0.117,-0.204 0.175,-0.308 C -8.477,2.749 -4.562,0 0,0"
       style="fill:#00b4f0;fill-opacity:1;fill-rule:nonzero;stroke:none;stroke-width:0.760494"
       transform="matrix(1.7532462,0,0,-1.7532462,166.13894,325.16643)"
       clip-path="url(#clipPath4)" />
  </g>
</svg>
